HIERARCHY
ROOT Hips
{
	OFFSET 0.000000 0.000000 0.000000
	CHANNELS 6 Xposition Yposition Zposition Xrotation Yrotation Zrotation
	JOINT LeftUpLeg_virtual
	{
		OFFSET 0.000000 0.000000 0.000000
		CHANNELS 3 Xrotation Yrotation Zrotation
		JOINT LeftUpLeg
		{
			OFFSET 13.026900 -6.336304 -1.092800
			CHANNELS 3 Xrotation Yrotation Zrotation
			JOINT LeftLeg
			{
				OFFSET 0.524474 -46.096886 9.782700
				CHANNELS 3 Xrotation Yrotation Zrotation
				JOINT LeftFoot
				{
					OFFSET -0.524474 -53.427422 -12.948200
					CHANNELS 3 Xrotation Yrotation Zrotation
					JOINT LeftToeBase
					{
						OFFSET 0.192200 -14.009700 16.364100
						CHANNELS 3 Xrotation Yrotation Zrotation
						JOINT LeftToe_End
						{
							OFFSET -1.784700 -0.561700 9.474800
							CHANNELS 3 Xrotation Yrotation Zrotation
							End Site
							{
								OFFSET 0 0 0
							}
						}
					}
				}
			}
		}
	}
	JOINT RightUpLeg_virtual
	{
		OFFSET 0.000000 0.000000 0.000000
		CHANNELS 3 Xrotation Yrotation Zrotation
		JOINT RightUpLeg
		{
			OFFSET -12.883000 -6.336304 -1.092800
			CHANNELS 3 Xrotation Yrotation Zrotation
			JOINT RightLeg
			{
				OFFSET -0.524587 -46.096825 9.782800
				CHANNELS 3 Xrotation Yrotation Zrotation
				JOINT RightFoot
				{
					OFFSET 0.524587 -53.427383 -12.948300
					CHANNELS 3 Xrotation Yrotation Zrotation
					JOINT RightToeBase
					{
						OFFSET -0.192200 -14.009700 16.364100
						CHANNELS 3 Xrotation Yrotation Zrotation
						JOINT RightToe_End
						{
							OFFSET 1.784700 -0.561700 9.474800
							CHANNELS 3 Xrotation Yrotation Zrotation
							End Site
							{
								OFFSET 0 0 0
							}
						}
					}
				}
			}
		}
	}
	JOINT Spine_virtual
	{
		OFFSET 0.000000 0.000000 0.000000
		CHANNELS 3 Xrotation Yrotation Zrotation
		JOINT Spine
		{
			OFFSET 0.072000 7.257294 -0.789700
			CHANNELS 3 Xrotation Yrotation Zrotation
			JOINT Spine1
			{
				OFFSET 0.000000 12.508769 -0.658067
				CHANNELS 3 Xrotation Yrotation Zrotation
				JOINT Spine1_split
				{
					OFFSET 0.000000 12.508769 -0.658067
					CHANNELS 3 Xrotation Yrotation Zrotation
					JOINT Spine2
					{
						OFFSET 0.000000 12.508769 -0.658067
						CHANNELS 3 Xrotation Yrotation Zrotation
						JOINT Neck_virtual
						{
							OFFSET 0.000000 0.000000 0.000000
							CHANNELS 3 Xrotation Yrotation Zrotation
							JOINT Neck
							{
								OFFSET 0.000000 14.033295 7.520400
								CHANNELS 3 Xrotation Yrotation Zrotation
								JOINT Head
								{
									OFFSET 0.000000 8.198502 5.703100
									CHANNELS 3 Xrotation Yrotation Zrotation
									JOINT HeadTop_End
									{
										OFFSET 0.000000 17.760803 13.332701
										CHANNELS 3 Xrotation Yrotation Zrotation
										End Site
										{
											OFFSET 0 0 0
										}
									}
								}
							}
						}
						JOINT LeftShoulder_virtual
						{
							OFFSET 0.000000 0.000000 0.000000
							CHANNELS 3 Xrotation Yrotation Zrotation
							JOINT LeftShoulder
							{
								OFFSET 6.292450 5.785301 -0.669000
								CHANNELS 3 Xrotation Yrotation Zrotation
								JOINT LeftShoulder_split
								{
									OFFSET 6.292450 5.785301 -0.669000
									CHANNELS 3 Xrotation Yrotation Zrotation
									JOINT LeftArm
									{
										OFFSET 13.907140 -6.093903 1.965100
										CHANNELS 3 Xrotation Yrotation Zrotation
										JOINT LeftForeArm
										{
											OFFSET 34.140198 0.000000 0.000000
											CHANNELS 3 Xrotation Yrotation Zrotation
											JOINT LeftHand
											{
												OFFSET 40.960209 0.000000 0.000000
												CHANNELS 3 Xrotation Yrotation Zrotation
												End Site
												{
													OFFSET 0 0 0
												}
											}
										}
									}
								}
							}
						}
						JOINT RightShoulder_virtual
						{
							OFFSET 0.000000 0.000000 0.000000
							CHANNELS 3 Xrotation Yrotation Zrotation
							JOINT RightShoulder
							{
								OFFSET -6.292450 5.785301 -0.669000
								CHANNELS 3 Xrotation Yrotation Zrotation
								JOINT RightShoulder_split
								{
									OFFSET -6.292450 5.785301 -0.669000
									CHANNELS 3 Xrotation Yrotation Zrotation
									JOINT RightArm
									{
										OFFSET -13.907140 -6.093903 1.965100
										CHANNELS 3 Xrotation Yrotation Zrotation
										JOINT RightForeArm
										{
											OFFSET -34.140198 0.000000 0.000000
											CHANNELS 3 Xrotation Yrotation Zrotation
											JOINT RightHand
											{
												OFFSET -40.960209 0.000000 0.000000
												CHANNELS 3 Xrotation Yrotation Zrotation
												End Site
												{
													OFFSET 0 0 0
												}
											}
										}
									}
								}
							}
						}
					}
				}
			}
		}
	}
}
MOTION
Frames: 7
Frame Time: 0.03333333
0.088087 119.910042 0.021290 0.000000 0.000000 0.000000 -3.665366 -5.520006 -3.771073 -11.304755 14.121623 12.168609 10.422818 3.816396 2.879011 2.590060 0.631119 -8.450447 -0.877728 0.290219 -1.223026 0.000000 0.000000 0.000000 -3.199360 -3.692028 -3.934945 0.200337 -8.790992 0.555250 6.100897 -7.138401 -3.526663 0.916866 -1.647204 2.850977 -7.517575 -0.311018 -0.229204 0.000000 0.000000 0.000000 -3.776919 -5.029589 -4.324310 2.925475 0.469301 3.503161 1.732593 -0.028950 1.805702 1.111234 -0.490503 0.018448 0.000000 0.000000 0.000000 1.267250 0.453165 1.654494 6.069606 1.212444 -0.123458 -5.343077 0.820592 -0.993648 0.000000 0.000000 0.000000 1.066160 0.592298 1.445265 1.714554 -15.485816 -12.657101 -2.598317 -0.416143 -1.466713 8.706761 -20.151539 -68.119020 -1.822243 -2.626855 0.079981 0.000000 0.000000 0.000000 1.403020 0.526817 1.658086 1.866605 12.140182 15.588452 0.422841 2.666502 -0.973675 12.395305 28.207669 57.292778 0.541719 11.240722 0.821779 0.000000 0.000000 0.000000 
0.194108 119.915062 0.061325 0.000000 0.000000 0.000000 -3.655971 -5.667490 -3.761885 -11.274164 14.060069 12.166385 10.527252 3.841412 2.842213 2.490729 0.649737 -8.493245 -0.895651 0.289904 -1.230833 0.000000 0.000000 0.000000 -3.176326 -3.779434 -3.919522 0.228336 -8.879517 0.572592 6.015020 -7.021061 -3.567766 0.989479 -1.702906 2.844851 -7.475381 -0.340496 -0.192961 0.000000 0.000000 0.000000 -3.772366 -5.204615 -4.359389 2.941163 0.451545 3.516694 1.721286 -0.044697 1.811410 1.083215 -0.464928 0.005661 0.000000 0.000000 0.000000 1.271333 0.455293 1.653361 6.087335 1.242020 -0.090720 -5.381617 0.901973 -1.007908 0.000000 0.000000 0.000000 1.091080 0.576235 1.460575 1.705034 -15.543714 -12.658548 -2.591345 -0.521301 -1.510130 8.625320 -20.155999 -68.179037 -1.830183 -2.693918 0.084205 0.000000 0.000000 0.000000 1.395543 0.516976 1.677451 1.848334 12.166301 15.644367 0.355902 2.665671 -0.957242 12.473495 28.213923 57.193924 0.560583 11.024468 0.855998 0.000000 0.000000 0.000000 
0.296438 119.914177 0.081757 0.000000 0.000000 0.000000 -3.685805 -5.957333 -3.778075 -11.240027 14.005054 12.237626 10.765102 3.908665 2.794385 2.309543 0.682416 -8.574952 -0.913385 0.291829 -1.245994 0.000000 0.000000 0.000000 -3.212077 -3.939204 -3.928350 0.251725 -9.045202 0.630859 5.963132 -6.763875 -3.619719 0.933311 -1.812136 2.812022 -7.394103 -0.362536 -0.169753 0.000000 0.000000 0.000000 -3.792412 -5.497210 -4.405100 2.969330 0.440355 3.556329 1.713063 -0.065694 1.812363 1.049598 -0.441614 -0.006493 0.000000 0.000000 0.000000 1.273409 0.449381 1.647011 6.125870 1.294765 -0.062374 -5.441369 1.059163 -1.080095 0.000000 0.000000 0.000000 1.116138 0.556855 1.471232 1.689657 -15.612834 -12.668149 -2.511692 -0.594537 -1.566050 8.568745 -20.050370 -68.253520 -1.814444 -2.752959 0.089411 0.000000 0.000000 0.000000 1.380420 0.503888 1.696988 1.832280 12.260061 15.674656 0.264763 2.678792 -0.946852 12.606389 28.184806 57.053086 0.534141 10.836303 0.920931 0.000000 0.000000 0.000000 
0.378719 119.904892 0.081108 0.000000 0.000000 0.000000 -3.753936 -6.332068 -3.807925 -11.204206 13.961155 12.363345 11.068841 4.023792 2.736730 2.080774 0.721868 -8.684627 -0.923878 0.295506 -1.262171 0.000000 0.000000 0.000000 -3.293853 -4.162381 -3.950061 0.231957 -9.276040 0.718725 6.001716 -6.371144 -3.664903 0.823159 -1.954809 2.802479 -7.320765 -0.377424 -0.161960 0.000000 0.000000 0.000000 -3.836814 -5.873195 -4.454364 3.007457 0.436616 3.615720 1.710801 -0.085320 1.809613 1.034007 -0.439554 0.009005 0.000000 0.000000 0.000000 1.269784 0.439952 1.636912 6.173507 1.360711 -0.038280 -5.515543 1.259695 -1.186830 0.000000 0.000000 0.000000 1.140881 0.537229 1.477745 1.666674 -15.687650 -12.684081 -2.407445 -0.584899 -1.625981 8.541454 -19.819869 -68.314207 -1.786962 -2.776397 0.094948 0.000000 0.000000 0.000000 1.365433 0.488986 1.713452 1.818972 12.409445 15.664965 0.178147 2.692541 -0.938168 12.786404 28.174969 56.887232 0.483179 10.703625 0.993679 0.000000 0.000000 0.000000 
0.439899 119.875954 0.048054 0.000000 0.000000 0.000000 -3.849031 -6.744169 -3.844562 -11.154419 13.929833 12.520878 11.382282 4.191510 2.672871 1.845528 0.761782 -8.808781 -0.927133 0.298691 -1.273568 0.000000 0.000000 0.000000 -3.401932 -4.432142 -3.975252 0.166177 -9.544503 0.835342 6.129363 -5.852706 -3.710411 0.688638 -2.131189 2.829740 -7.336997 -0.388485 -0.172581 0.000000 0.000000 0.000000 -3.907919 -6.307422 -4.502604 3.052933 0.441468 3.685277 1.716598 -0.097231 1.805508 1.039800 -0.461382 0.034919 0.000000 0.000000 0.000000 1.261580 0.433418 1.623712 6.216234 1.431403 -0.015222 -5.594030 1.463064 -1.293703 0.000000 0.000000 0.000000 1.167920 0.521924 1.481152 1.639222 -15.763301 -12.691610 -2.291059 -0.491426 -1.689708 8.512995 -19.501659 -68.345728 -1.761539 -2.766275 0.096846 0.000000 0.000000 0.000000 1.358548 0.477816 1.725154 1.808962 12.597475 15.598771 0.084170 2.690890 -0.923609 13.017114 28.248448 56.696529 0.435097 10.647626 1.050717 0.000000 0.000000 0.000000 
0.485914 119.827248 0.000847 0.000000 0.000000 0.000000 -3.955121 -7.151028 -3.881182 -11.080659 13.901775 12.684626 11.671793 4.406077 2.609022 1.642285 0.794820 -8.937298 -0.934296 0.300823 -1.276302 0.000000 0.000000 0.000000 -3.509959 -4.722048 -3.996455 0.067718 -9.817220 0.978935 6.338328 -5.250236 -3.769027 0.511067 -2.360775 2.840917 -7.421774 -0.399784 -0.193500 0.000000 0.000000 0.000000 -4.004239 -6.765654 -4.546766 3.100770 0.453757 3.755757 1.731198 -0.095532 1.804076 1.045660 -0.517215 0.069988 0.000000 0.000000 0.000000 1.252581 0.435651 1.610602 6.252694 1.498251 0.003008 -5.661307 1.616432 -1.375868 0.000000 0.000000 0.000000 1.200845 0.513828 1.483158 1.611527 -15.831296 -12.679516 -2.191336 -0.341023 -1.784554 8.470119 -19.140584 -68.345386 -1.745792 -2.724891 0.094493 0.000000 0.000000 0.000000 1.361003 0.474279 1.734016 1.800820 12.806300 15.476128 0.000873 2.680131 -0.898720 13.276354 28.425572 56.510714 0.410949 10.676871 1.071154 0.000000 0.000000 0.000000 
0.522779 119.777092 -0.038013 0.000000 0.000000 0.000000 -4.072421 -7.562578 -3.910752 -10.972787 13.870653 12.845647 11.930991 4.657636 2.557007 1.497673 0.814249 -9.066718 -0.948715 0.301928 -1.270726 0.000000 0.000000 0.000000 -3.613422 -5.059018 -4.008300 -0.075547 -10.069322 1.138908 6.611467 -4.614967 -3.840311 0.304302 -2.660927 2.771065 -7.482430 -0.413019 -0.211114 0.000000 0.000000 0.000000 -4.128144 -7.230760 -4.586667 3.146881 0.468947 3.815527 1.751378 -0.081973 1.808071 1.042652 -0.604120 0.088089 0.000000 0.000000 0.000000 1.244805 0.447756 1.599384 6.290612 1.556207 0.018485 -5.713281 1.685370 -1.427285 0.000000 0.000000 0.000000 1.241468 0.512162 1.485207 1.592214 -15.888458 -12.631760 -2.129203 -0.146178 -1.886563 8.407223 -18.766711 -68.331753 -1.737308 -2.650671 0.087914 0.000000 0.000000 0.000000 1.377959 0.480537 1.746171 1.800762 13.020258 15.316254 -0.088536 2.664038 -0.863193 13.505391 28.650823 56.348231 0.410022 10.829759 1.049286 0.000000 0.000000 0.000000 
